<svg width="21" height="19" viewBox="0 0 21 19" fill="none" xmlns="http://www.w3.org/2000/svg">
<path d="M6.89845 17.815C7.32912 17.815 7.67825 17.4658 7.67825 17.0352C7.67825 16.6045 7.32912 16.2554 6.89845 16.2554C6.46778 16.2554 6.11865 16.6045 6.11865 17.0352C6.11865 17.4658 6.46778 17.815 6.89845 17.815Z" stroke="#F8F8F8" stroke-width="1.31967" stroke-linecap="round" stroke-linejoin="round"/>
<path d="M17.815 17.815C18.2456 17.815 18.5948 17.4658 18.5948 17.0352C18.5948 16.6045 18.2456 16.2554 17.815 16.2554C17.3843 16.2554 17.0352 16.6045 17.0352 17.0352C17.0352 17.4658 17.3843 17.815 17.815 17.815Z" stroke="#F8F8F8" stroke-width="1.31967" stroke-linecap="round" stroke-linejoin="round"/>
<path d="M0.659912 0.659668H3.77911L6.11851 13.9163H18.5953" stroke="#F8F8F8" stroke-width="1.31967" stroke-linecap="round" stroke-linejoin="round"/>
<path d="M6.11819 10.797H18.2753C18.3654 10.7971 18.4529 10.7659 18.5226 10.7088C18.5924 10.6516 18.6402 10.5721 18.6579 10.4836L20.0615 3.46544C20.0728 3.40885 20.0714 3.35045 20.0575 3.29446C20.0435 3.23846 20.0172 3.18627 19.9806 3.14165C19.944 3.09702 19.898 3.06108 19.8458 3.03642C19.7936 3.01176 19.7366 2.99898 19.6789 2.99902H4.55859" stroke="#F8F8F8" stroke-width="1.31967" stroke-linecap="round" stroke-linejoin="round"/>
</svg>
