<svg width="24" height="24" viewBox="0 0 24 24" fill="none" xmlns="http://www.w3.org/2000/svg">
<path d="M22.673 0.00941726H1.32703C0.592916 0.00941726 0 0.602273 0 1.3361V22.6735C0 23.4074 0.592916 24 1.32703 24H12V14.5074H9.12942V11.0074H12V8.42018C12 5.32492 14.1459 3.63162 16.9223 3.63162C18.2494 3.63162 19.6706 3.73501 20 3.77265V7.00897H17.7976C16.2917 7.00897 16 7.72409 16 8.76839V10.998H19.5859L19.1153 14.498H16V23.9906H22.673C23.4071 23.9906 24 23.398 24 22.6641V1.32669C24 0.592856 23.4071 0 22.673 0V0.00941726Z" fill="white"/>
</svg>
