<svg width="24" height="24" viewBox="0 0 24 24" fill="none" xmlns="http://www.w3.org/2000/svg">
<path d="M23.7757 7.00522C23.719 5.73845 23.511 4.86867 23.2179 4.11238C22.9154 3.30883 22.4522 2.59983 21.8377 2.00426C21.2421 1.39923 20.5236 0.926604 19.7295 0.633544C18.9733 0.340484 18.1035 0.132423 16.8368 0.0757022C15.5605 0.0189809 15.1541 0 11.921 0C8.68785 0 8.28134 0.00951817 7.01457 0.0662394C5.74779 0.122961 4.87807 0.331022 4.12179 0.624081C3.31824 0.926595 2.60917 1.38978 2.00415 2.00426C1.39912 2.59983 0.926489 3.31829 0.633429 4.11238C0.340369 4.86867 0.132366 5.73845 0.0756445 7.00522C0.0189232 8.28145 0 8.68791 0 11.921C0 15.1541 0.00946047 15.5606 0.0661817 16.8273C0.122903 18.0941 0.330906 18.9639 0.623966 19.7202C0.926479 20.5237 1.39912 21.2327 2.00415 21.8283C2.59972 22.4333 3.31823 22.906 4.11233 23.199C4.86861 23.4921 5.73833 23.7001 7.00511 23.7569C8.27188 23.8136 8.67839 23.8229 11.9115 23.8229C15.1446 23.8229 15.5511 23.8136 16.8179 23.7569C18.0847 23.7001 18.9544 23.4921 19.7107 23.199C21.3083 22.5845 22.5751 21.3178 23.199 19.7107C23.4921 18.9544 23.7 18.0847 23.7568 16.8179C23.8135 15.5511 23.8229 15.1447 23.8229 11.9116C23.8229 8.67844 23.8229 8.272 23.7662 7.00522H23.7757ZM21.6297 16.7327C21.5824 17.8955 21.3839 18.529 21.2232 18.9449C20.8262 19.9848 20.0037 20.8072 18.9638 21.2042C18.5478 21.3649 17.9145 21.5636 16.7517 21.6109C15.4944 21.6676 15.1162 21.6769 11.9398 21.6769C8.76344 21.6769 8.37587 21.6676 7.12801 21.6109C5.96522 21.5636 5.33181 21.3649 4.91585 21.2042C4.39591 21.0152 3.93267 20.7127 3.54508 20.3157C3.14803 19.9281 2.84551 19.4649 2.65644 18.9449C2.49573 18.529 2.29722 17.8955 2.24995 16.7327C2.19323 15.4754 2.18377 15.0974 2.18377 11.921C2.18377 8.74463 2.19323 8.35695 2.24995 7.10908C2.29722 5.9463 2.49573 5.31283 2.65644 4.89687C2.84551 4.37692 3.14804 3.91375 3.55454 3.52615C3.94214 3.1291 4.40537 2.82665 4.92532 2.63757C5.34127 2.47686 5.97468 2.2784 7.13747 2.23114C8.39479 2.17442 8.7729 2.1649 11.9493 2.1649C15.1257 2.1649 15.5133 2.17442 16.7612 2.23114C17.924 2.2784 18.5573 2.47686 18.9733 2.63757C19.4932 2.82665 19.9564 3.1291 20.344 3.52615C20.7411 3.91375 21.0436 4.37692 21.2327 4.89687C21.3934 5.31283 21.5919 5.9463 21.6392 7.10908C21.6959 8.3664 21.7054 8.74463 21.7054 11.921C21.7054 15.0974 21.6959 15.4754 21.6392 16.7327H21.6297Z" fill="white"/>
<path d="M11.9304 5.79523C8.55546 5.79523 5.81396 8.53673 5.81396 11.9116C5.81396 15.2866 8.55546 18.0281 11.9304 18.0281C15.3053 18.0281 18.0468 15.2866 18.0468 11.9116C18.0468 8.53673 15.3053 5.79523 11.9304 5.79523ZM11.9304 15.8821C9.73716 15.8821 7.95994 14.1049 7.95994 11.9116C7.95994 9.71842 9.73716 7.9412 11.9304 7.9412C14.1236 7.9412 15.9009 9.71842 15.9009 11.9116C15.9009 14.1049 14.1236 15.8821 11.9304 15.8821Z" fill="white"/>
<path d="M19.7202 5.55902C19.7202 6.34367 19.0774 6.98652 18.2927 6.98652C17.5081 6.98652 16.8652 6.34367 16.8652 5.55902C16.8652 4.77438 17.5081 4.13153 18.2927 4.13153C19.0774 4.13153 19.7202 4.77438 19.7202 5.55902Z" fill="white"/>
</svg>
