<svg width="273" height="182" viewBox="0 0 273 182" fill="none" xmlns="http://www.w3.org/2000/svg">
<path d="M8.48847 103V31.4105H25.0563V89.5003H60.9534V103H8.48847ZM106.581 104.273C100.713 104.273 95.2691 103.318 90.2494 101.409C85.3004 99.5004 80.9877 96.8138 77.3113 93.3495C73.7056 89.8852 70.8776 85.8199 68.8273 81.1537C66.8477 76.4875 65.8579 71.3972 65.8579 65.8826C65.8579 60.368 66.8477 55.2776 68.8273 50.6114C70.8776 45.9452 73.741 41.88 77.4174 38.4157C81.0938 34.9514 85.4065 32.2648 90.3554 30.3559C95.3044 28.447 100.678 27.4925 106.475 27.4925C112.343 27.4925 117.716 28.447 122.595 30.3559C127.544 32.2648 131.821 34.9514 135.427 38.4157C139.103 41.88 141.966 45.9452 144.017 50.6114C146.067 55.2069 147.092 60.2973 147.092 65.8826C147.092 71.3972 146.067 76.5229 144.017 81.2598C141.966 85.926 139.103 89.9912 135.427 93.4555C131.821 96.8491 127.544 99.5004 122.595 101.409C117.716 103.318 112.378 104.273 106.581 104.273ZM106.475 89.6377C109.798 89.6377 112.838 89.0721 115.595 87.9409C118.423 86.8097 120.898 85.1836 123.019 83.0626C125.14 80.9416 126.766 78.4318 127.897 75.5331C129.099 72.6344 129.7 69.4176 129.7 65.8826C129.7 62.3476 129.099 59.1307 127.897 56.232C126.766 53.3333 125.14 50.8235 123.019 48.7025C120.968 46.5815 118.529 44.9554 115.701 43.8242C112.873 42.693 109.798 42.1274 106.475 42.1274C103.152 42.1274 100.077 42.693 97.2487 43.8242C94.4914 44.9554 92.0522 46.5815 89.9312 48.7025C87.8102 50.8235 86.1488 53.3333 84.9469 56.232C83.8157 59.1307 83.2501 62.3476 83.2501 65.8826C83.2501 69.3469 83.8157 72.5637 84.9469 75.5331C86.1488 78.4318 87.7749 80.9416 89.8252 83.0626C91.9462 85.1836 94.4207 86.8097 97.2487 87.9409C100.077 89.0721 103.152 89.6377 106.475 89.6377ZM175.334 103L151.049 28.7651H168.865L189.969 94.516H181.061L203.12 28.7651H219.027L240.237 94.516H231.647L253.281 28.7651H269.719L245.433 103H226.981L208.21 45.3089H213.088L193.787 103H175.334Z" fill="white"/>
<path d="M29.776 156.604V102.769H8.54562V90.2587H66.3605V102.769H45.1301V156.604H29.776ZM74.6217 156.604V90.2587H89.9758V156.604H74.6217ZM97.0013 156.604L126.572 90.2587H141.737L171.402 156.604H155.29L131.027 98.0305H137.093L112.735 156.604H97.0013ZM111.787 142.387L115.862 130.729H149.982L154.153 142.387H111.787ZM178.286 156.604V90.2587H190.986L230.129 138.027H223.969V90.2587H239.133V156.604H226.528L187.29 108.835H193.45V156.604H178.286Z" fill="white"/>
</svg>
