<svg width="20" height="19" viewBox="0 0 20 19" fill="none" xmlns="http://www.w3.org/2000/svg">
<path d="M19.1039 17.3512C17.6984 14.9214 15.5326 13.1792 13.0051 12.3533C14.2553 11.609 15.2267 10.4749 15.77 9.12513C16.3133 7.77537 16.3985 6.28457 16.0125 4.88169C15.6266 3.47881 14.7908 2.2414 13.6335 1.35951C12.4762 0.47762 11.0614 0 9.60639 0C8.15138 0 6.7366 0.47762 5.57931 1.35951C4.42202 2.2414 3.58622 3.47881 3.20025 4.88169C2.81429 6.28457 2.8995 7.77537 3.44281 9.12513C3.98612 10.4749 4.95747 11.609 6.20772 12.3533C3.68016 13.1783 1.51435 14.9205 0.108924 17.3512C0.0573846 17.4352 0.0231989 17.5287 0.00838382 17.6262C-0.00643123 17.7236 -0.00157547 17.8231 0.0226646 17.9186C0.0469046 18.0142 0.0900381 18.1039 0.14952 18.1826C0.209002 18.2612 0.283627 18.3271 0.368992 18.3764C0.454358 18.4257 0.548735 18.4574 0.646555 18.4696C0.744375 18.4819 0.843657 18.4744 0.938542 18.4477C1.03343 18.4209 1.12199 18.3754 1.19902 18.3139C1.27604 18.2524 1.33996 18.176 1.387 18.0894C3.12556 15.0848 6.19849 13.2908 9.60639 13.2908C13.0143 13.2908 16.0872 15.0848 17.8258 18.0894C17.8728 18.176 17.9367 18.2524 18.0138 18.3139C18.0908 18.3754 18.1794 18.4209 18.2742 18.4477C18.3691 18.4744 18.4684 18.4819 18.5662 18.4696C18.664 18.4574 18.7584 18.4257 18.8438 18.3764C18.9292 18.3271 19.0038 18.2612 19.0633 18.1826C19.1227 18.1039 19.1659 18.0142 19.1901 17.9186C19.2144 17.8231 19.2192 17.7236 19.2044 17.6262C19.1896 17.5287 19.1554 17.4352 19.1039 17.3512ZM4.43871 6.64668C4.43871 5.62461 4.74179 4.62549 5.30962 3.77567C5.87745 2.92584 6.68453 2.26349 7.6288 1.87236C8.57308 1.48123 9.61213 1.37889 10.6146 1.57829C11.617 1.77768 12.5378 2.26986 13.2605 2.99257C13.9832 3.71529 14.4754 4.63608 14.6748 5.63851C14.8742 6.64094 14.7718 7.67999 14.3807 8.62427C13.9896 9.56854 13.3272 10.3756 12.4774 10.9435C11.6276 11.5113 10.6285 11.8144 9.60639 11.8144C8.23629 11.8129 6.92272 11.268 5.95391 10.2992C4.98509 9.33035 4.44017 8.01678 4.43871 6.64668Z" fill="#F8F8F8"/>
</svg>
