<svg width="21" height="24" viewBox="0 0 21 24" fill="none" xmlns="http://www.w3.org/2000/svg">
<path d="M20.4197 9.68042C20.2212 9.69932 20.0321 9.70881 19.8336 9.70881C17.6876 9.70881 15.6835 8.6216 14.5018 6.82543V16.6289C14.5018 20.6277 11.2592 23.8797 7.25091 23.8797C3.24261 23.8797 0 20.6372 0 16.6289C0 12.6206 3.24261 9.37807 7.25091 9.37807C7.40216 9.37807 7.55339 9.38754 7.6952 9.397V12.9702C7.54394 12.9513 7.40216 12.9231 7.25091 12.9231C5.20894 12.9231 3.55454 14.5774 3.55454 16.6194C3.55454 18.6614 5.20894 20.3157 7.25091 20.3157C9.29287 20.3157 11.0984 18.7087 11.0984 16.6572L11.1363 0H14.5585C14.8799 3.06295 17.3473 5.4547 20.4291 5.68159V9.65203" fill="white"/>
</svg>
